# xmcd
#
# Track frame offsets: 
#        150
#        7610
#        27622
#        44825
#        66345
#        92260
#        111645
#        135097
#        158750
#        162362
#        181665
#        203495
#
# Disc length: 2995 seconds
#
# Revision: 3
# Processed by: cddbd v1.5.2PL0 Copyright (c) Steve Scherf et al.
# Submitted via: ExactAudioCopy v0.99pb5
#
DISCID=910bb10c
DTITLE=The Notorious B.I.G. - Life After Death CD1
DYEAR=1997
DGENRE=Hip-Hop
TTITLE0=Life After Death Intro
TTITLE1=Somebody's Gotta Die
TTITLE2=Hypnotize
TTITLE3=Kick The Door
TTITLE4=Fuck You Tonight, Feat. R. Kelly
TTITLE5=Last Day, Feat. The Lox
TTITLE6=I Love The Dough, Feat. Jay-Z and Angela Winbush
TTITLE7=What's Beef
TTITLE8=B.I.G. Interlude
TTITLE9=Mo Money Mo Problems, Feat. Mase and Puff Daddy
TTITLE10=Niggas Bleed
TTITLE11=I Got a Story to Tell
EXTD=
EXTT0=
EXTT1=
EXTT2=
EXTT3=
EXTT4=
EXTT5=
EXTT6=
EXTT7=
EXTT8=
EXTT9=
EXTT10=
EXTT11=
PLAYORDER=
